# xmcd
#
# Track frame offsets:
#	150
#	10591
#	21822
#	34019
#	45223
#	60002
#	71552
#	81185
#	92723
#	103207
#	113388
#	125048
#	138188
#	149459
#	161531
#	173900
#	185734
#	197556
#	211652
#	223401
#	232668
#	245691
#	256401
#	272026
#
# Disc length: 3804 seconds
#
# Revision: 1
# Processed by: cddbd v1.5.2PL0 Copyright (c) Steve Scherf et al.
# Submitted via: audiograbber 1.83.01
#
DISCID=460eda18
DTITLE=Various Artist - 101 Northern Soul Anthems - Disc 2
DYEAR=2009
DGENRE=Northern Soul
TTITLE0=Mike Post Coalition - Afternoon Of The Rhino
TTITLE1=Laura Greene - Moonlight Music and You
TTITLE2=The Flirtations - Nothing But A Heartache
TTITLE3=Robert Knight - Love On A Mountain Top
TTITLE4=The Trammps - Hold Back The Night
TTITLE5=William Bell - Happy
TTITLE6=Archie Bell and The Drells - Here I Go Again
TTITLE7=Millie Jackson - My Man A Sweet Man
TTITLE8=The Chiffons - Sweet Talkin' Guy
TTITLE9=Franki Valli - You're Ready Now
TTITLE10=Bandwagon - Breakin' Down The Walls Of Heartache
TTITLE11=The Newbeats - Run Baby Run
TTITLE12=Little Anthony and The Imperials - Gonna Fix You Good (Every Time You're
TTITLE12=Bad)
TTITLE13=Jay and The Americans - Livin' Above Your Head
TTITLE14=Tami Lynn - I'm Gonna Run Away From You
TTITLE15=Gloia Jones - Tainted Love
TTITLE16=The Showstoppers - Ain't Nothing But A Houseparty
TTITLE17=Mitch Ryder and The Detroit Wheels - You Get Your Kicks
TTITLE18=Homer Banks - A Lot Of Love
TTITLE19=Rodger Collins - You Sexy Sugar Plum (But I Like It)
TTITLE20=Jackie Wilson - I Get The Sweetest Feeling
TTITLE21=Garnet Mimms - Looking For You
TTITLE22=Kenny Lynch - Movin' Away
TTITLE23=Timi Yuro - It'll Never Be Over For Me
EXTD=
EXTT0=
EXTT1=
EXTT2=
EXTT3=
EXTT4=
EXTT5=
EXTT6=
EXTT7=
EXTT8=
EXTT9=
EXTT10=
EXTT11=
EXTT12=
EXTT13=
EXTT14=
EXTT15=
EXTT16=
EXTT17=
EXTT18=
EXTT19=
EXTT20=
EXTT21=
EXTT22=
EXTT23=
PLAYORDER=
